<svg xmlns="http://www.w3.org/2000/svg" xmlns:xlink="http://www.w3.org/1999/xlink" width="500" zoomAndPan="magnify" viewBox="0 0 375 374.999991" height="500" preserveAspectRatio="xMidYMid meet" version="1.0"><defs><g/></defs><rect x="-37.5" width="450" fill="#ffffff" y="-37.499999" height="449.999989" fill-opacity="1"/><rect x="-37.5" width="450" fill="#ffffff" y="-37.499999" height="449.999989" fill-opacity="1"/><rect x="-37.5" width="450" fill="#ffffff" y="-37.499999" height="449.999989" fill-opacity="1"/><rect x="-37.5" width="450" fill="#ffffff" y="-37.499999" height="449.999989" fill-opacity="1"/><g fill="#99af7f" fill-opacity="1"><g transform="translate(29.485892, 196.821647)"><g><path d="M 88.21875 -79.5625 C 75.851562 -79.398438 57.054688 -76.675781 40.894531 -72.800781 C 41.058594 -73.460938 41.222656 -74.203125 41.386719 -74.78125 C 41.554688 -75.6875 40.976562 -76.511719 40.152344 -76.675781 C 39.246094 -76.921875 38.421875 -76.347656 38.253906 -75.523438 C 38.007812 -74.367188 37.761719 -73.214844 37.429688 -71.894531 C 23.828125 -68.429688 8.246094 -62.988281 6.183594 -56.0625 C 5.523438 -54.085938 5.769531 -51.117188 10.058594 -48.148438 C 10.386719 -47.902344 10.636719 -47.820312 10.964844 -47.820312 C 11.460938 -47.820312 11.953125 -48.066406 12.285156 -48.5625 C 12.78125 -49.222656 12.613281 -50.210938 11.871094 -50.703125 C 8.574219 -53.011719 8.988281 -54.578125 9.152344 -55.15625 C 10.554688 -59.691406 22.097656 -64.472656 36.605469 -68.429688 C 35.039062 -61.835938 32.980469 -53.921875 30.835938 -45.757812 C 28.855469 -38.339844 26.878906 -30.585938 24.980469 -23.003906 C 14.261719 -20.117188 5.195312 -17.066406 3.050781 -15.003906 C 2.472656 -14.429688 2.390625 -13.4375 3.050781 -12.78125 C 3.296875 -12.449219 3.792969 -12.285156 4.203125 -12.285156 C 4.535156 -12.285156 4.945312 -12.449219 5.277344 -12.78125 C 6.429688 -13.851562 12.695312 -16.324219 24.074219 -19.457031 C 19.871094 -2.390625 16.40625 13.6875 16.242188 23.332031 C 16.160156 28.609375 17.480469 31.742188 20.199219 32.894531 C 20.941406 33.226562 21.683594 33.308594 22.507812 33.308594 C 29.351562 33.308594 40.152344 23.332031 52.4375 11.378906 C 53.34375 10.472656 54.25 9.644531 54.992188 8.902344 L 56.394531 7.503906 C 56.722656 7.253906 57.054688 6.84375 57.464844 6.511719 C 57.546875 6.679688 57.628906 6.761719 57.714844 6.84375 C 58.453125 7.335938 59.445312 7.171875 59.9375 6.511719 C 63.15625 2.226562 64.390625 0.578125 62.988281 -0.660156 C 61.753906 -1.8125 60.269531 -0.496094 58.703125 0.988281 C 57.464844 2.144531 55.898438 3.628906 54.167969 5.277344 L 52.847656 6.597656 C 52.023438 7.421875 51.117188 8.246094 50.210938 9.070312 C 41.964844 17.148438 26.628906 32.238281 21.4375 30.011719 C 19.703125 29.269531 19.375 25.972656 19.457031 23.414062 C 19.621094 13.769531 23.25 -3.050781 27.621094 -20.445312 C 29.515625 -20.941406 31.496094 -21.519531 33.636719 -22.011719 C 47.902344 -25.640625 61.175781 -28.195312 64.472656 -28.03125 C 65.378906 -27.949219 66.121094 -28.609375 66.121094 -29.515625 C 66.203125 -30.421875 65.546875 -31.164062 64.636719 -31.164062 C 60.679688 -31.414062 43.695312 -27.949219 28.445312 -23.992188 C 30.257812 -31.082031 32.15625 -38.253906 33.886719 -44.933594 C 36.195312 -53.839844 38.421875 -62.328125 40.070312 -69.253906 C 56.3125 -73.378906 75.4375 -76.179688 88.300781 -76.347656 C 89.125 -76.347656 89.867188 -77.089844 89.867188 -77.996094 C 89.867188 -78.820312 89.125 -79.480469 88.21875 -79.5625 Z M 88.21875 -79.5625 "/></g></g></g><g fill="#99af7f" fill-opacity="1"><g transform="translate(99.401186, 196.821647)"><g><path d="M 36.6875 -18.878906 C 36.03125 -19.457031 35.039062 -19.375 34.464844 -18.714844 C 27.949219 -11.210938 17.726562 0.742188 16.078125 2.886719 C 15.582031 3.460938 15.085938 4.121094 14.59375 4.78125 C 13.933594 3.132812 13.109375 1.566406 12.039062 -0.0820312 C 8.078125 -6.183594 4.535156 -11.953125 4.699219 -15.996094 C 4.863281 -19.210938 6.511719 -22.011719 9.234375 -23.664062 C 11.460938 -24.980469 13.933594 -25.230469 15.828125 -24.320312 C 16.570312 -23.992188 17.5625 -24.320312 17.890625 -25.144531 C 18.304688 -25.886719 17.972656 -26.878906 17.148438 -27.207031 C 14.347656 -28.527344 10.71875 -28.195312 7.585938 -26.382812 C 3.957031 -24.15625 1.8125 -20.445312 1.566406 -16.160156 C 1.320312 -11.128906 4.945312 -5.113281 9.398438 1.648438 C 10.800781 3.792969 11.707031 5.855469 12.285156 7.832031 C 5.855469 16.570312 -1.070312 27.785156 2.472656 31.246094 C 3.050781 31.824219 3.792969 32.070312 4.535156 32.070312 C 5.855469 32.070312 7.335938 31.414062 8.902344 30.175781 C 13.355469 26.464844 17.972656 18.054688 15.746094 8.492188 C 16.65625 7.335938 17.5625 6.101562 18.550781 4.863281 C 20.199219 2.804688 30.421875 -9.152344 36.855469 -16.65625 C 37.429688 -17.3125 37.347656 -18.304688 36.6875 -18.878906 Z M 9.894531 24.238281 C 7.667969 27.539062 5.441406 28.855469 4.699219 28.9375 C 4.371094 27.785156 5.441406 23.003906 13.109375 12.121094 C 13.4375 18.054688 10.964844 22.589844 9.894531 24.238281 Z M 9.894531 24.238281 "/></g></g></g><g fill="#99af7f" fill-opacity="1"><g transform="translate(132.627451, 196.821647)"><g><path d="M 36.6875 -18.878906 C 36.03125 -19.457031 35.039062 -19.375 34.464844 -18.714844 C 27.949219 -11.210938 17.726562 0.742188 16.078125 2.886719 C 15.582031 3.460938 15.085938 4.121094 14.59375 4.78125 C 13.933594 3.132812 13.109375 1.566406 12.039062 -0.0820312 C 8.078125 -6.183594 4.535156 -11.953125 4.699219 -15.996094 C 4.863281 -19.210938 6.511719 -22.011719 9.234375 -23.664062 C 11.460938 -24.980469 13.933594 -25.230469 15.828125 -24.320312 C 16.570312 -23.992188 17.5625 -24.320312 17.890625 -25.144531 C 18.304688 -25.886719 17.972656 -26.878906 17.148438 -27.207031 C 14.347656 -28.527344 10.71875 -28.195312 7.585938 -26.382812 C 3.957031 -24.15625 1.8125 -20.445312 1.566406 -16.160156 C 1.320312 -11.128906 4.945312 -5.113281 9.398438 1.648438 C 10.800781 3.792969 11.707031 5.855469 12.285156 7.832031 C 5.855469 16.570312 -1.070312 27.785156 2.472656 31.246094 C 3.050781 31.824219 3.792969 32.070312 4.535156 32.070312 C 5.855469 32.070312 7.335938 31.414062 8.902344 30.175781 C 13.355469 26.464844 17.972656 18.054688 15.746094 8.492188 C 16.65625 7.335938 17.5625 6.101562 18.550781 4.863281 C 20.199219 2.804688 30.421875 -9.152344 36.855469 -16.65625 C 37.429688 -17.3125 37.347656 -18.304688 36.6875 -18.878906 Z M 9.894531 24.238281 C 7.667969 27.539062 5.441406 28.855469 4.699219 28.9375 C 4.371094 27.785156 5.441406 23.003906 13.109375 12.121094 C 13.4375 18.054688 10.964844 22.589844 9.894531 24.238281 Z M 9.894531 24.238281 "/></g></g></g><g fill="#99af7f" fill-opacity="1"><g transform="translate(165.853716, 196.821647)"><g><path d="M 27.867188 -18.386719 C 27.125 -18.878906 26.136719 -18.714844 25.640625 -17.972656 C 19.457031 -9.316406 14.429688 -3.875 9.480469 -0.328125 C 7.007812 1.402344 4.617188 1.730469 3.050781 0.578125 C 2.0625 -0.164062 -0.988281 -3.460938 2.554688 -15.003906 C 10.554688 -21.601562 14.921875 -27.867188 13.769531 -31.164062 C 13.355469 -32.15625 12.367188 -32.8125 11.296875 -32.8125 C 7.996094 -32.730469 2.96875 -27.042969 -0.328125 -16.40625 C -4.371094 -3.296875 -1.070312 1.484375 1.238281 3.132812 C 2.390625 4.039062 3.710938 4.453125 5.195312 4.453125 C 7.089844 4.453125 9.234375 3.710938 11.296875 2.226562 C 16.570312 -1.566406 21.765625 -7.171875 28.195312 -16.160156 C 28.691406 -16.902344 28.527344 -17.890625 27.867188 -18.386719 Z M 10.636719 -29.351562 C 10.304688 -28.03125 8.902344 -25.394531 5.027344 -21.4375 C 7.171875 -26.21875 9.480469 -28.527344 10.636719 -29.351562 Z M 10.636719 -29.351562 "/></g></g></g><g fill="#99af7f" fill-opacity="1"><g transform="translate(189.845863, 196.821647)"><g><path d="M 33.144531 -18.386719 C 32.402344 -18.796875 31.414062 -18.550781 31 -17.726562 C 29.019531 -14.347656 23.828125 -5.195312 20.859375 -5.523438 C 20.28125 -5.605469 18.632812 -6.429688 16.984375 -12.203125 C 15.828125 -16.242188 14.261719 -20.035156 11.210938 -20.199219 C 8.988281 -20.363281 6.511719 -18.632812 2.722656 -11.542969 C 3.710938 -15.085938 4.78125 -18.632812 5.605469 -21.519531 C 5.9375 -22.589844 6.183594 -23.496094 6.429688 -24.40625 C 6.679688 -25.230469 6.183594 -26.136719 5.359375 -26.382812 C 4.535156 -26.628906 3.628906 -26.136719 3.378906 -25.230469 C 3.132812 -24.40625 2.886719 -23.414062 2.554688 -22.425781 C 0.414062 -15.085938 -2.804688 -3.957031 -3.628906 2.804688 C -3.710938 3.546875 -3.214844 4.289062 -2.472656 4.453125 C -2.308594 4.535156 -2.226562 4.535156 -2.0625 4.535156 C -1.402344 4.535156 -0.824219 4.121094 -0.578125 3.546875 C 7.171875 -15.746094 10.304688 -17.066406 11.046875 -17.066406 C 11.210938 -17.066406 12.367188 -16.738281 13.933594 -11.296875 C 15.582031 -5.605469 17.726562 -2.722656 20.53125 -2.390625 C 24.734375 -1.894531 28.527344 -7.089844 33.722656 -16.160156 C 34.214844 -16.984375 33.886719 -17.890625 33.144531 -18.386719 Z M 33.144531 -18.386719 "/></g></g></g><g fill="#99af7f" fill-opacity="1"><g transform="translate(219.27952, 196.821647)"><g><path d="M 27.207031 -18.714844 C 26.464844 -19.128906 25.476562 -18.960938 25.0625 -18.222656 C 19.457031 -9.730469 10.140625 4.453125 4.039062 3.132812 C 3.050781 2.886719 2.226562 2.226562 1.648438 1.152344 C 0 -1.8125 0.246094 -7.75 2.144531 -12.945312 C 4.203125 -18.46875 6.679688 -19.871094 7.171875 -19.789062 C 7.253906 -19.703125 7.75 -18.632812 7.089844 -16.078125 C 6.84375 -15.171875 7.335938 -14.347656 8.164062 -14.097656 C 9.070312 -13.933594 9.894531 -14.429688 10.140625 -15.253906 C 11.707031 -21.1875 8.988281 -22.507812 8.164062 -22.835938 C 5.113281 -23.746094 1.402344 -20.117188 -0.824219 -14.015625 C -2.722656 -8.902344 -3.546875 -1.648438 -1.070312 2.722656 C -0.0820312 4.617188 1.484375 5.769531 3.378906 6.183594 C 3.875 6.347656 4.371094 6.347656 4.863281 6.347656 C 12.039062 6.347656 19.789062 -4.453125 27.703125 -16.488281 C 28.195312 -17.230469 27.949219 -18.222656 27.207031 -18.714844 Z M 27.207031 -18.714844 "/></g></g></g><g fill="#99af7f" fill-opacity="1"><g transform="translate(243.683912, 196.821647)"><g><path d="M 24.074219 -18.714844 C 23.332031 -19.210938 22.425781 -18.960938 21.929688 -18.222656 C 16.40625 -9.316406 7.171875 -0.90625 4.371094 -2.0625 C 4.039062 -2.226562 1.402344 -3.792969 5.027344 -17.726562 C 5.195312 -18.632812 4.699219 -19.457031 3.875 -19.703125 C 2.96875 -19.871094 2.144531 -19.375 1.894531 -18.550781 C -1.070312 -6.925781 -0.660156 -0.742188 3.050781 0.824219 C 3.628906 1.070312 4.203125 1.152344 4.78125 1.152344 C 10.964844 1.152344 20.445312 -9.894531 24.652344 -16.570312 C 25.0625 -17.3125 24.816406 -18.304688 24.074219 -18.714844 Z M 4.617188 -25.394531 C 8.820312 -25.144531 8.738281 -30.421875 5.359375 -29.269531 C 3.628906 -28.773438 1.402344 -25.558594 4.617188 -25.394531 Z M 4.617188 -25.394531 "/></g></g></g><g fill="#99af7f" fill-opacity="1"><g transform="translate(264.543059, 196.821647)"><g><path d="M 34.464844 -18.304688 C 33.722656 -18.632812 32.730469 -18.304688 32.402344 -17.5625 C 26.136719 -4.78125 21.4375 -0.742188 19.210938 -1.152344 C 18.304688 -1.320312 15.335938 -3.050781 14.59375 -17.480469 C 14.59375 -18.136719 14.097656 -18.714844 13.519531 -18.878906 C 12.863281 -19.046875 12.121094 -18.878906 11.789062 -18.304688 C 11.296875 -17.726562 10.800781 -17.066406 10.304688 -16.324219 C 8.246094 -13.519531 5.523438 -9.730469 2.226562 -6.183594 C 1.730469 -5.605469 1.320312 -5.277344 1.070312 -5.113281 C 0.496094 -7.996094 3.546875 -19.046875 8.410156 -22.507812 C 9.8125 -23.496094 11.707031 -24.238281 14.261719 -21.269531 C 14.839844 -20.613281 15.828125 -20.53125 16.488281 -21.105469 C 17.148438 -21.601562 17.230469 -22.671875 16.738281 -23.332031 C 13.605469 -26.960938 10.636719 -26.878906 8.65625 -26.21875 C 2.308594 -23.992188 -1.980469 -11.789062 -2.144531 -6.183594 C -2.226562 -3.875 -1.566406 -2.390625 -0.246094 -1.894531 C 1.8125 -1.070312 3.875 -3.296875 4.535156 -4.039062 C 7.335938 -7.089844 9.894531 -10.386719 11.707031 -12.945312 C 12.613281 -3.546875 14.839844 1.152344 18.550781 1.980469 C 18.878906 1.980469 19.210938 2.0625 19.539062 2.0625 C 25.144531 2.0625 31.164062 -7.75 35.203125 -16.160156 C 35.617188 -16.984375 35.289062 -17.890625 34.464844 -18.304688 Z M 34.464844 -18.304688 "/></g></g></g><g fill="#99af7f" fill-opacity="1"><g transform="translate(295.213451, 196.821647)"><g><path d="M 24.238281 -77.253906 C 23.664062 -77.996094 22.835938 -78.324219 22.011719 -78.242188 C 17.3125 -77.417969 12.285156 -59.855469 10.882812 -54.496094 C 6.761719 -38.75 1.566406 -16.40625 -2.636719 3.628906 C -4.617188 13.109375 -6.183594 21.105469 -7.171875 26.878906 C -8.820312 36.605469 -8.574219 37.84375 -7.007812 38.253906 C -6.84375 38.339844 -6.679688 38.339844 -6.511719 38.339844 C -5.027344 38.339844 -4.289062 36.359375 -3.546875 34.214844 C -3.296875 33.390625 -3.710938 32.484375 -4.535156 32.238281 C -4.617188 32.15625 -4.699219 32.15625 -4.78125 32.15625 C -3.050781 20.28125 4.039062 -14.261719 11.296875 -43.203125 C 11.296875 -43.285156 11.378906 -43.367188 11.460938 -43.449219 C 22.179688 -60.433594 26.382812 -73.957031 24.238281 -77.253906 Z M 14.097656 -54.332031 C 17.230469 -65.957031 20.035156 -71.5625 21.519531 -73.871094 C 21.1875 -70.820312 19.375 -64.226562 14.097656 -54.332031 Z M 14.097656 -54.332031 "/></g></g></g></svg>